<?xml version="1.0" encoding="utf-8"?>
<!-- Generator: Adobe Illustrator 17.0.0, SVG Export Plug-In . SVG Version: 6.00 Build 0)  -->
<!DOCTYPE svg PUBLIC "-//W3C//DTD SVG 1.1//EN" "http://www.w3.org/Graphics/SVG/1.1/DTD/svg11.dtd">
<svg version="1.1" id="Layer_1" xmlns="http://www.w3.org/2000/svg" xmlns:xlink="http://www.w3.org/1999/xlink" x="0px" y="0px"
	 width="180px" height="44px" viewBox="0 0 180 44" enable-background="new 0 0 180 44" xml:space="preserve">
<g>
	<path fill="#231F20" d="M23.662,13.208V37.83h-1.854L7.275,10.879V30.93c0,4.054,0.992,5.562,3.019,6.555v0.086H3.222v-0.086
		c1.811-0.992,2.76-2.588,2.76-5.735V12.474c0-2.846-0.302-3.967-2.113-5.002V7.386h8.667l9.832,18.542V14.027
		c0-4.054-0.949-5.562-2.976-6.555V7.386h7.072v0.086C24.653,8.464,23.662,10.059,23.662,13.208z"/>
	<path fill="#231F20" d="M44.92,35.759c-0.604,1.208-2.027,2.156-3.967,2.156c-2.285,0-3.751-1.25-4.096-3.536l-0.086-0.732
		c-0.518,2.587-2.415,4.226-5.131,4.226s-4.916-1.768-4.916-5.088c0-4.355,3.967-5.778,7.935-6.856l2.026-0.561v-5.434
		c0-1.94-0.776-3.19-2.285-3.19c-1.337,0-2.156,1.207-2.156,2.889c0,1.725,0.604,2.631,1.682,2.631c0.173,0,0.388-0.044,0.561-0.13
		c-0.388,1.423-1.725,2.242-3.277,2.242c-2.027,0-3.45-1.207-3.45-3.363c0-3.191,3.062-5.088,6.942-5.088
		c4.657,0,7.676,1.638,7.676,6.554c0,3.536-0.086,7.547-0.086,11.039c0,1.596,0.561,2.458,1.682,2.458
		c0.388,0,0.69-0.129,0.949-0.345V35.759z M35.692,26.532c-2.07,0.69-3.536,2.113-3.536,5.175c0,2.112,0.733,3.449,2.07,3.449
		c1.466,0,2.415-1.466,2.458-4.183v-4.786L35.692,26.532z"/>
	<path fill="#231F20" d="M56.907,30.714c-0.302,4.398-1.897,7.288-5.52,7.288c-3.191,0-5.131-1.984-5.131-6.555l0.043-13.972h-1.854
		v-0.431c3.32-0.906,6.037-3.795,7.072-8.107h0.388v7.417h4.528l-0.216,1.121h-4.312V31.62c0,2.415,0.561,3.45,1.897,3.45
		c1.423,0,2.372-1.423,2.717-4.398L56.907,30.714z"/>
	<path fill="#231F20" d="M69.627,21.141c0-2.975-0.388-3.794-1.811-4.7v-0.086h7.46v16.516c0,2.846,0.215,3.708,1.595,4.614v0.086
		h-7.244V33.13c-0.819,3.147-2.76,4.873-5.477,4.873c-3.147,0-4.959-2.199-4.959-5.822V21.141c0-2.975-0.345-3.794-1.811-4.7v-0.086
		h7.46v15.696c0,1.596,0.518,2.846,2.07,2.846c1.466,0,2.717-1.423,2.717-4.915V21.141z"/>
	<path fill="#231F20" d="M90.195,21.4c0-1.164-0.604-1.94-1.897-1.94c-1.596,0-3.019,2.243-3.019,5.865v7.934
		c0,2.847,0.518,3.364,2.027,4.227v0.086h-9.271v-0.086c1.38-0.906,1.596-1.51,1.596-4.355V21.141c0-2.975-0.388-3.794-1.811-4.7
		v-0.086h7.46v5.434c0.647-3.104,2.285-5.821,4.916-5.821c2.242,0,3.751,1.595,3.751,3.838c0,2.414-1.553,3.924-3.493,3.924
		c-0.776,0-1.293-0.216-1.466-0.432C89.591,23.082,90.195,22.392,90.195,21.4z"/>
	<path fill="#231F20" d="M110.547,26.057h-10.307c0,5.477,1.726,8.927,5.046,8.927c2.069,0,3.881-1.337,4.872-4.744l0.26,0.044
		c-0.604,4.743-3.062,7.719-7.461,7.719c-4.614,0-8.538-4.054-8.538-10.996c0-6.641,4.097-11.082,8.667-11.082
		C108.176,15.924,110.547,20.236,110.547,26.057z M105.243,25.109c0-4.614-0.172-8.365-2.199-8.365c-1.682,0-2.63,3.578-2.76,8.365
		H105.243z"/>
	<path fill="#231F20" d="M128.829,7.386v0.086c-1.811,1.035-2.113,2.156-2.113,5.002v24.104h1.553c4.484,0,6.684-2.501,9.229-8.581
		h0.086l-0.819,9.573H118.48v-0.086c1.812-1.035,2.112-2.156,2.112-5.002V12.474c0-2.846-0.301-3.967-2.112-5.002V7.386H128.829z"/>
	<path fill="#231F20" d="M157.417,35.759c-0.604,1.208-2.026,2.156-3.968,2.156c-2.285,0-3.751-1.25-4.096-3.536l-0.086-0.732
		c-0.518,2.587-2.415,4.226-5.132,4.226s-4.916-1.768-4.916-5.088c0-4.355,3.968-5.778,7.935-6.856l2.026-0.561v-5.434
		c0-1.94-0.776-3.19-2.285-3.19c-1.337,0-2.156,1.207-2.156,2.889c0,1.725,0.604,2.631,1.682,2.631c0.173,0,0.388-0.044,0.562-0.13
		c-0.389,1.423-1.726,2.242-3.277,2.242c-2.027,0-3.45-1.207-3.45-3.363c0-3.191,3.062-5.088,6.942-5.088
		c4.657,0,7.676,1.638,7.676,6.554c0,3.536-0.086,7.547-0.086,11.039c0,1.596,0.561,2.458,1.682,2.458
		c0.388,0,0.689-0.129,0.948-0.345V35.759z M148.19,26.532c-2.07,0.69-3.536,2.113-3.536,5.175c0,2.112,0.733,3.449,2.069,3.449
		c1.467,0,2.415-1.466,2.458-4.183v-4.786L148.19,26.532z"/>
	<path fill="#231F20" d="M163.325,33.517c-0.82,2.372-3.105,4.054-4.83,4.441c0.389-2.587,0.389-5.778,0.389-9.572v-18.37
		c0-2.976-0.346-3.708-1.812-4.657V5.273h7.46v15.739c0.646-3.32,2.631-5.088,5.434-5.088c3.751,0,6.812,4.053,6.812,10.952
		c0,6.684-3.449,11.126-7.805,11.126C166.472,38.003,164.273,36.623,163.325,33.517z M167.679,18.296
		c-1.552,0-3.147,2.156-3.147,6.253v5.648c0,4.398,1.553,6.426,3.062,6.426c2.112,0,3.147-3.752,3.147-9.703
		C170.741,21.573,169.706,18.296,167.679,18.296z"/>
</g>
</svg>
